<svg version="1.1" xmlns="http://www.w3.org/2000/svg" xmlns:xlink="http://www.w3.org/1999/xlink" width="747.57213" height="491.5943" viewBox="0,0,747.57213,491.5943"><g transform="translate(105.57213,30.09434)"><g data-paper-data="{&quot;isPaintingLayer&quot;:true}" fill="none" fill-rule="nonzero" stroke="none" stroke-width="none" stroke-linecap="none" stroke-linejoin="miter" stroke-miterlimit="10" stroke-dasharray="" stroke-dashoffset="0" font-family="none" font-weight="none" font-size="none" text-anchor="none" style="mix-blend-mode: normal"><path d="M191,300l275,-53l112,-17" fill="none" stroke="#000000" stroke-width="2" stroke-linecap="round"/><path d="M196,294l-167,164" fill="none" stroke="#000000" stroke-width="2" stroke-linecap="round"/><path d="M460,243l181,-20" fill="none" stroke="#000000" stroke-width="2" stroke-linecap="round"/><path d="M88.69551,390.78611c-10.54384,2.283 -20.74458,6.70316 -31.04528,10.0146c-22.00127,7.07291 -44.07038,13.8957 -66.05856,20.92994c-0.47979,0.15349 -0.95924,0.3068 -1.43837,0.45905c-4.23076,2.62951 -8.49046,5.21095 -12.82411,7.67527c-4.57231,2.60004 -8.96815,5.75099 -14.11562,6.9117l-2.45988,0.44608c-0.12334,-1.56518 -0.54331,-3.14294 -0.56294,-4.70372c-0.10847,-0.07572 -0.21808,-0.14811 -0.32922,-0.21604l0.33007,-0.05986c0.00654,-0.33956 0.03402,-0.67823 0.08966,-1.0157c0.13557,-0.82223 1.14271,-1.21512 1.75454,-1.78089c0.23165,-0.21421 0.46529,-0.42666 0.70064,-0.63757c-3.90418,1.90536 -7.91051,3.61082 -11.87111,5.3931c-2.79403,1.25731 -5.81657,3.04279 -8.98336,3.034c-2.4089,-0.00668 -4.66232,-4.85297 -4.9163,-5.68916c-0.14136,-0.46542 3.33189,-4.67001 3.5469,-4.96567c3.31344,-4.55614 7.85451,-8.37168 12.09916,-12.20579c-1.89282,-3.24167 -3.86401,-6.75103 -3.86529,-7.31205c-0.00217,-0.94828 0.16666,-7.19694 0.1736,-10.79797c-1.35302,0.70045 -2.70537,1.40216 -4.05689,2.10542c-2.95684,1.53858 -5.89953,3.10513 -8.84911,4.6576c-0.73743,0.38813 -1.41297,1.40008 -2.21228,1.1644c-0.05814,-0.01714 -0.11576,-0.03539 -0.17288,-0.05468l-1.91755,1.15053c-0.03514,-0.81384 -0.18785,-1.6421 -0.30214,-2.46565c-0.75775,-0.60523 -1.48156,-1.28192 -2.27034,-1.82182c0.10064,-0.06038 2.345,-1.407 2.44564,-1.46738c0.18174,-0.26343 0.50818,-0.40823 0.87143,-0.52286c1.03804,-0.62283 2.07609,-1.24565 3.11413,-1.86848c1.7891,-1.0724 3.58394,-2.12721 5.38473,-3.16552c-9.04353,0.0179 -28.89719,-0.14342 -34.28624,-4.59856c-2.91722,-2.41167 -6.19614,-4.60168 -8.30215,-7.74668c-1.34636,-2.01057 -0.9667,-4.74642 -1.62326,-7.07537c-0.65656,-2.32895 -2.40928,-4.46365 -2.31131,-6.8814c0.41353,-10.20578 6.11419,-16.81158 13.91817,-22.01423c11.22287,-7.48191 28.08779,-10.46174 40.57551,-13.05902c28.75191,-5.98003 38.81599,-5.39311 68.86392,-9.4003c17.5046,-2.33442 34.92762,-5.24456 52.3853,-7.90721c4.43976,-0.67716 9.10133,-0.5359 13.30672,-2.11218c7.0356,-2.6371 13.31316,-6.97039 20.01065,-10.37589c11.49451,-5.84467 24.35702,-8.48113 36.60223,-12.52322c26.10213,-8.61619 54.81291,-13.28848 82.14491,-16.13001c3.92,-0.40754 8.42458,-0.85823 12.08581,-0.72112c0.91046,0.0341 1.73042,0.84733 2.63396,0.73021c25.11454,-3.25549 44.553,-8.19617 70.41348,-10.93865c19.73851,-2.09325 39.34857,-2.51021 59.04198,-2.48611c3.44915,-1.21754 6.89115,-2.45562 10.32456,-3.71838c16.60494,-6.10704 33.38869,-11.65624 50.07148,-17.54428c6.90266,-2.22709 14.88661,-1.98756 22.10501,-1.95372c2.92971,0.01373 6.52387,-0.14056 9.24568,1.10478c1.51556,0.69343 2.35702,2.35702 3.53553,3.53553c1.11294,1.11294 2.22589,2.22589 3.33883,3.33883c5.65482,0 11.30964,0 16.96447,0c1.00057,0 5.30434,-0.61208 6,0c1.21878,1.07235 1.95024,2.59577 2.92536,3.89366c1.72869,6.91474 -0.12536,13.97447 -0.44466,20.91643c-0.15553,3.38138 -0.20731,6.77829 -0.20656,10.18103c18.58579,2.16313 36.27473,6.76807 54.24461,14.39193c6.51769,2.76518 13.2767,6.6944 18.25773,11.69333c9.74485,9.77986 13.73672,16.8341 18.43544,29.13886c2.03628,5.33249 3.09168,11.08806 3.65882,16.75947c0.6295,6.29495 0.50772,12.67898 -0.11586,18.97651c-0.35669,3.60226 -0.70305,7.94504 -2.38948,11.20547c-1.36161,2.63244 -2.84528,5.21897 -4.27165,7.79644c-1.21234,2.19072 -5.1282,4.53835 -6.84758,5.91382c-12.73286,10.186 -37.37144,0.72828 -49.39963,-4.52166c-5.96676,-2.60431 -11.87983,-5.33054 -17.8477,-7.93231c-6.08892,-2.65454 -12.16961,-5.33091 -18.30354,-7.87944c-3.86823,9.77074 -9.7565,19.04224 -13.50939,28.67557c-0.8624,2.2137 -2.01513,4.23546 -2.94984,6.40893c-0.11307,0.26291 -0.75994,2.60374 -0.86436,2.67254c-2.96333,1.95221 -3.67164,1.70943 -6.37171,1.70943l0.12624,-0.22341c-0.27005,0.11734 -0.59308,0.19636 -0.97944,0.21909c-2.49569,0.14681 -2.64249,-2.34888 -2.64249,-2.34888l3.49569,-2.64681c0.66667,0 1.54019,-0.48272 2,0c0.40219,0.42223 -0.67631,1.21218 -0.37171,1.70943c0.27531,0.44943 0.32976,-1.0012 0.5,-1.5c0.20832,-0.61038 0.3822,-1.2344 0.63564,-1.82746c0.87186,-2.04019 1.95394,-3.91099 2.76303,-5.98786c3.091,-7.93435 6.96529,-15.44747 10.65145,-23.11838c0.87708,-1.8252 1.83655,-3.74795 2.71935,-5.71248c-2.12035,-0.86684 -4.2422,-1.73082 -6.3688,-2.58262c-0.33762,0.01287 -0.6805,0.01937 -1.02895,0.01937c-3.37717,-0.23207 -6.79589,1.55745 -10.00558,2.5302c-4.19428,1.27115 -8.54816,2.44242 -12.53874,4.29876c-7.62814,3.54847 -14.45389,9.00363 -22.40613,11.84371c-4.02288,1.43674 -8.13193,3.32145 -12.28784,4.31359c-2.86108,0.68303 -6.13227,0.6455 -9.05495,0.95315c-10.27663,1.08175 -20.37582,1.06058 -30.70677,1.06058c-5.94245,-0.033 -11.89735,-1.03313 -17.79943,-1.69173c-8.16198,-0.91079 -16.29461,-1.97173 -24.42452,-3.08662c-0.92284,0.16594 -1.84567,0.33188 -2.76851,0.49782c-18.04394,3.2446 -36.08788,6.4892 -54.13181,9.73379c-0.30501,0.05485 -0.61003,0.10969 -0.91504,0.16454c7.48019,8.29972 14.75656,16.74612 21.92773,25.42702c6.13493,7.42649 10.75016,16.55992 15.85656,24.73016l0.87501,1.40002c0,0 0.07266,4.09849 -2.41041,3.80807c-2.48307,-0.29042 -1.82958,-1.15808 -1.82958,-1.15808l-0.87501,-1.40002c-4.98762,-7.98019 -9.48115,-16.94442 -15.47138,-24.19575c-7.79115,-9.43139 -15.70496,-18.58176 -23.87271,-27.56853c-15.80566,2.84212 -31.61133,5.68424 -47.41698,8.52635c-18.04394,3.2446 -36.08788,6.4892 -54.13181,9.73379c-18.04394,3.2446 -36.08788,6.4892 -54.13181,9.73379c-18.04394,3.2446 -36.08788,6.4892 -54.13181,9.73379c-18.04394,3.2446 -36.08788,6.4892 -54.13181,9.73379c-18.04394,3.2446 -36.08788,6.4892 -54.13181,9.73379c-0.58946,0.10599 -1.17892,0.21199 -1.76838,0.31798c-0.64117,0.26102 -1.30528,0.63471 -1.83114,0.32927l-2.4946,0.44857c-0.15867,0.03158 -0.32276,0.04814 -0.49072,0.04814c-1.38071,0 -2.5,-1.11929 -2.5,-2.5c0,-1.23174 0.89079,-2.25543 2.0633,-2.46199l2.40824,-0.47281c0.46746,-0.68987 1.63545,-0.32109 2.45317,-0.48163c3.27089,-0.64217 6.54178,-1.28435 9.81267,-1.92652c12.26584,-2.40816 24.53168,-4.81631 36.79751,-7.22447c17.9899,-3.53196 35.97979,-7.06392 53.96969,-10.59588c17.9899,-3.53196 35.97979,-7.06392 53.96969,-10.59588c11.81271,-2.31919 23.62541,-4.63838 35.43812,-6.95758c-8.40978,0.44427 -16.7889,0.29158 -25.17355,-0.54688c-0.76615,-0.10421 -1.50956,-0.25078 -2.23558,-0.4315c-17.86081,2.96542 -35.72161,5.93084 -53.58242,8.89626c-18.08575,3.00277 -36.17151,6.00554 -54.25726,9.0083c-17.15533,2.84829 -34.31066,5.69658 -51.46598,8.54487c-0.60199,0.24829 -1.21679,0.55694 -1.70799,0.28358l-2.53376,0.42068c-0.02417,0.00445 -0.04846,0.00856 -0.07287,0.01231c-0.73166,0.14251 -1.7814,0.06642 -2.51849,-1.17033c-0.02835,-0.04646 -0.05523,-0.09391 -0.08057,-0.1423c-0.67864,-1.26355 -0.20352,-2.20238 0.29311,-2.75585c0.37394,-0.4496 0.90257,-0.76597 1.5042,-0.86744l2.413,-0.45437c0.47377,-0.68556 1.63788,-0.30841 2.45682,-0.46262c3.27577,-0.61683 6.55153,-1.23365 9.8273,-1.85048c12.28412,-2.3131 24.56824,-4.62619 36.85236,-6.93929c18.01671,-3.39254 36.03342,-6.78509 54.05012,-10.17763c14.85035,-2.79632 29.70071,-5.59264 44.55106,-8.38896c-0.77122,-0.39836 -1.49645,-0.86389 -2.10357,-1.47101c-1.92131,-1.92131 -0.66294,-5.26211 -0.05365,-7.39691c1.68326,-5.89772 5.15084,-10.86097 8.92536,-15.89366c0.38619,-0.50559 0.77032,-1.01349 1.15257,-1.52352zM-37.90533,423.19247c-2.0301,-0.99343 -4.91022,-1.10508 -6.05321,-3.05489c-0.01576,-0.02688 -0.33622,-0.55478 -0.83483,-1.38502c-3.27531,2.91288 -6.67863,5.82329 -9.49006,9.06497c-0.98694,1.13797 -1.71288,2.47848 -2.58842,3.70423c-0.09649,0.13508 -0.19298,0.27017 -0.28947,0.40525c0.40221,0.31512 0.81259,0.85214 1.27936,0.83692c0.35922,-0.01171 -0.13564,-0.83413 0.13586,-1.06965c1.25897,-1.09214 3.03974,-1.36788 4.55961,-2.05182c4.51612,-2.03225 9.10504,-3.94979 13.50934,-6.21488c0.04221,-0.02164 0.08442,-0.04327 0.12662,-0.06491c-0.11826,-0.0556 -0.23652,-0.11233 -0.3548,-0.1702zM291.98318,368.8241c-5.18132,0.64725 -10.36631,1.27594 -15.54639,1.93943c2.53654,1.23572 5.08126,2.44073 7.85378,3.36476c1.58512,0.52837 3.22127,0.93823 4.88287,1.27316c4.12804,-0.77731 8.25608,-1.55462 12.38412,-2.33193c-0.58791,-0.75556 -1.14279,-1.54959 -1.77433,-2.2543l2.15341,-1.26997c0.95233,-0.55137 1.91814,-1.08024 2.89583,-1.58886c-4.26724,0.353 -8.62274,0.33973 -12.84928,0.86771zM256.12953,373.66919c-0.70091,0.1151 -3.08705,0.57906 -6.51659,1.26085c2.47767,2.12461 4.90802,4.30383 7.2783,6.55014c4.4967,-0.84673 8.99341,-1.69346 13.49011,-2.54019c2.81189,-0.52948 5.62379,-1.05896 8.43568,-1.58844c-3.28262,-1.44627 -6.37688,-3.15492 -9.69621,-4.57415c-0.62797,-0.2685 -1.27458,-0.52794 -1.93457,-0.77979c-3.69171,0.51678 -7.37832,1.0675 -11.05672,1.67157zM167.76988,393.28044c-13.53852,3.21722 -32.89029,9.39302 -47.17307,2.08024c-2.39878,-1.22817 -6.41038,-6.0431 -8.78895,-9.04c-0.76605,1.06349 -1.53507,2.12347 -2.3078,3.1793c-1.45689,1.94253 -3.2772,3.90436 -4.5,6c-0.39901,0.68383 -0.21843,1.61319 -0.62829,2.29057c-0.68252,1.12801 -2.05476,1.7786 -2.60394,2.9772c-0.39699,0.86643 -0.08036,1.92226 -0.34241,2.83857c-0.5672,1.9833 -1.55424,3.1025 -0.05365,4.60309c0.25554,0.25554 -0.41557,-0.94416 -0.08114,-1.08114c0.48772,-0.19976 1.01535,0.29289 1.5,0.5c1.46684,0.62684 2.88377,1.35854 4.31844,2.05588c0.37397,-0.07042 0.74795,-0.14084 1.12192,-0.21126c18.01671,-3.39254 36.03342,-6.78509 54.05012,-10.17763c10.41293,-1.96075 20.82586,-3.92151 31.23879,-5.88226c-1.77435,-0.05787 -3.54794,-0.14295 -5.32051,-0.26637c-2.99848,-0.20879 -6.43705,-0.00534 -9.37305,-0.65266c-1.2068,-0.26608 -2.39041,-0.65164 -3.56328,-1.086c-2.49568,0.64814 -4.99285,1.27832 -7.49318,1.87248zM306.24685,375.03645c-0.83034,0.07054 -1.79331,0.66727 -2.49103,0.21161c-0.25369,-0.16568 -0.49165,-0.34967 -0.7175,-0.54778l-0.71517,0.42177c0.032,-0.15395 0.05855,-0.31024 0.0812,-0.4682l-8.05532,1.59015c1.5986,0.2151 3.19643,0.40315 4.77173,0.60125l12.76123,-2.28749c-1.87838,0.15956 -3.75676,0.31913 -5.63515,0.47869zM313.22535,369.42564c0.85413,-0.07256 1.70826,-0.14511 2.5624,-0.21767c0.60903,-0.05174 1.21769,-0.10412 1.82602,-0.15716c-0.92165,-0.10479 -1.84425,-0.20448 -2.76766,-0.2995c-0.54309,0.22014 -1.08345,0.44479 -1.62076,0.67433zM352.89863,365.05806c4.92602,-0.70323 9.85337,-1.38636 14.78226,-2.05331c0.08303,-0.4194 0.14479,-0.84767 0.20401,-1.27698l-21.15368,4.17581c2.05452,-0.27022 4.10998,-0.5518 6.16742,-0.84551zM-26.58372,426.38746c0.42183,-0.26544 0.83509,-0.51834 1.23822,-0.75222c-0.12159,0.00637 -0.24317,0.01204 -0.36475,0.017c-0.29116,0.24505 -0.58232,0.49013 -0.87348,0.73522zM396.30499,364.32669c-0.06359,0.0263 -0.12713,0.05264 -0.19064,0.07902c1.21226,-0.12829 2.42454,-0.25631 3.6368,-0.38436c0.15922,-0.06154 0.31836,-0.12336 0.47742,-0.18544c-1.308,0.16302 -2.61586,0.32659 -3.92359,0.49078zM373.72728,362.19454c4.26924,-0.56664 8.5397,-1.12235 12.8115,-1.66964c2.82779,-0.90902 5.64778,-1.84243 8.4593,-2.80095c-7.0898,1.47986 -14.16939,3.01577 -21.2708,4.4706zM250.71042,382.50175c-2.37962,-2.1701 -4.81924,-4.27556 -7.30349,-6.32977c-9.3696,1.88425 -22.00588,4.45775 -31.5038,6.41297c12.92903,0.21636 25.89272,-0.05851 38.80729,-0.08321zM282.70943,378.87171c-0.20468,-0.06824 -0.40815,-0.1381 -0.61052,-0.20949l-18.69721,3.69089c0.7242,-0.0196 1.44801,-0.04116 2.17146,-0.0647c1.36031,-0.15569 2.71634,-0.31634 4.06271,-0.49564c1.17171,-0.15604 2.3522,-0.24655 3.53718,-0.29632l11.42862,-2.04861c-0.63687,-0.17677 -1.26804,-0.36807 -1.89223,-0.57613zM325.35668,373.67605c-6.85965,1.29167 -13.7193,2.58334 -20.57896,3.87501c2.03678,0.23812 4.08923,0.45635 6.15036,0.64315c11.36904,-1.64641 22.53716,-3.62353 33.68483,-6.1124c-1.58167,-0.12686 -3.16099,-0.2035 -4.73864,-0.28185c-3.65327,0.43385 -7.30754,0.83502 -10.96832,1.20776c-1.18309,0.22278 -2.36618,0.44555 -3.54928,0.66833zM285.94207,381.09781c1.48286,-0.12536 2.96555,-0.25919 4.44838,-0.4015c-0.40081,-0.06697 -0.80091,-0.13685 -1.20002,-0.21016c-1.08279,0.20389 -2.16557,0.40778 -3.24836,0.61166zM197.37897,387.10235c-1.56914,-0.08259 -3.1373,-0.17644 -4.70444,-0.28124c-1.65845,0.42094 -3.31584,0.85247 -4.97266,1.28933c0.28502,0.01316 0.56689,0.02891 0.84483,0.04826c7.425,0.51702 14.8709,0.34379 22.3129,0.33974c2.94426,-0.0016 5.8841,-0.00352 8.82072,-0.01145c1.4561,-0.27418 2.9122,-0.54837 4.3683,-0.82255c-8.90254,0.01274 -17.80129,-0.09534 -26.66966,-0.56209zM222.19263,399.17619c-15.41832,2.5599 -30.83665,5.11979 -46.25497,7.67969h-0.00001c-2.68837,1.36234 -5.36608,2.74281 -8.08098,3.93931c-2.39203,1.05421 -4.86545,2.34511 -7.3767,3.54817c17.47789,-3.43144 34.95579,-6.86288 52.43368,-10.29432c16.52536,-3.24443 33.05071,-6.48885 49.57607,-9.73328c-0.49578,-0.52797 -0.99261,-1.05549 -1.49052,-1.5826c-12.93552,2.14768 -25.87105,4.29536 -38.80657,6.44303zM279.81119,390.91503c-4.22484,0.36914 -8.45235,0.712 -12.68093,1.04043c0.38162,0.40799 0.76263,0.81626 1.14305,1.22481c3.84596,-0.75508 7.69192,-1.51016 11.53788,-2.26524zM454,242.74805l2.07565,2.59456c0.3068,0.19176 0.67304,-0.35232 1.03413,-0.32963c0.15478,0.00973 0.30837,0.02026 0.46092,0.03146c-0.90161,-1.07633 -1.69347,-2.31062 -2.94506,-2.88327c-0.22738,-0.10404 -0.41228,0.19412 -0.62563,0.38969zM375.78598,377.16773c-15.18819,2.9819 -30.37638,5.9638 -45.56457,8.94571c1.31657,0.18337 2.63307,0.36581 3.94962,0.54691c16.86115,-3.03191 33.7223,-6.06383 50.58345,-9.09574c16.71207,-3.00511 33.42414,-6.01022 50.1362,-9.01531c-10.62652,1.05256 -21.25287,2.00661 -31.86288,3.27004c-9.08061,1.7828 -18.16121,3.56559 -27.24182,5.34839zM350.48981,388.80615c2.91879,0.36073 5.84013,0.70655 8.76527,1.03296c5.69827,0.63587 11.50622,1.70071 17.24492,1.66089c10.15661,0 20.08275,0.03011 30.18334,-1.03311c2.91811,-0.30717 6.20037,-0.26218 9.05495,-0.95315c3.73087,-0.90308 7.50312,-2.75461 11.12958,-4.04977c7.67498,-2.74106 14.28904,-8.07714 21.6596,-11.50579c4.34856,-2.02287 9.023,-3.35047 13.59335,-4.73559c1.22417,-0.37101 2.39357,-0.76149 3.54837,-1.12759c-8.63267,1.5523 -17.26535,3.10459 -25.89802,4.65689c-18.04394,3.2446 -36.08788,6.4892 -54.13181,9.73379c-11.71652,2.10682 -23.43303,4.21365 -35.14955,6.32047zM157.42143,409.93012c-7.0736,1.17443 -14.14719,2.34885 -21.22079,3.52328c1.87622,-0.05577 3.75392,-0.14294 5.63368,-0.26042c3.1448,-0.19655 6.92567,0.11979 9.98053,-0.62378c1.34063,-0.32632 2.4605,-1.25255 3.72309,-1.80899c0.62783,-0.27669 1.25566,-0.55339 1.88349,-0.83008zM318.34081,389.50688c-1.07189,-0.14551 -2.14412,-0.28889 -3.21669,-0.42939c-14.28877,2.80531 -28.57753,5.61064 -42.86629,8.41595c0.07866,0.08582 0.15729,0.17166 0.2359,0.25751c1.33237,-0.23958 2.66474,-0.47916 3.99711,-0.71875c13.94999,-2.50844 27.89998,-5.01688 41.84998,-7.52532zM254.09591,401.05918c4.18966,-0.75337 8.37931,-1.50674 12.56897,-2.26011c-0.05409,-0.05857 -0.1082,-0.11714 -0.16232,-0.1757c-4.13555,0.81193 -8.2711,1.62387 -12.40665,2.43581zM236.82825,388.01135c0.57638,-0.14239 1.152,-0.28825 1.72706,-0.43648c-0.55881,0.00463 -1.11766,0.0093 -1.67654,0.01394l-4.07076,0.80358c0.68657,-0.00904 1.37306,-0.01887 2.0595,-0.02958z" fill="#00ff47" stroke="none" stroke-width="0.5" stroke-linecap="butt"/><text transform="translate(210,319) scale(0.5,0.5)" font-size="40" xml:space="preserve" data-paper-data="{&quot;origPos&quot;:null}" fill="#ff0000" fill-rule="nonzero" stroke="none" stroke-width="1" stroke-linecap="butt" stroke-linejoin="miter" stroke-miterlimit="10" stroke-dasharray="" stroke-dashoffset="0" font-family="Sans Serif" font-weight="normal" text-anchor="start" style="mix-blend-mode: normal"><tspan x="0" dy="0">KAIROHARUHARU</tspan></text><path d="M443.73047,63c-9.9093,-0.13025 -19.82058,0.07224 -29.73047,0c-6.09235,-0.04441 -12.2251,-2.75842 -18.10974,-3c-16.28304,-0.66845 -32.59354,0.0338 -48.89026,0c-14.44014,-0.02995 -34.58769,-2.81983 -49.16574,-4.09399c-28.88319,-2.52446 -59.75781,-7.12999 -88.30359,-0.49573c-21.93099,5.09694 -45.15171,10.86971 -65.26938,20.93241c-29.70819,14.85981 -56.45892,34.80694 -86.43025,49.19263c-3.88266,1.86361 -9.50665,5.16189 -14.28746,6.95951c-22.48955,8.45623 -45.79694,14.97431 -69.93292,8.56465c-15.53033,-4.1243 -27.76642,-13.38735 -27.76642,-30.45703c0,-18.57112 14.95853,-27.81503 27.34359,-39.10718c3.79924,-3.46397 11.39461,-5.35477 11.30261,-10.49528c-0.00339,-0.18936 -12.05095,0.44581 -15.39669,-0.39062c-13.38744,-3.34686 -20.13772,-10.15418 -21.09375,-24.60937c-0.04537,-0.68597 -0.44041,-5.04997 -0.33046,-5.49386c4.61444,-18.62827 18.87637,-21.21748 34.92392,-27.05628c16.87117,-6.13847 33.81616,-12.11578 50.99656,-17.32647c3.86603,-1.17254 8.08805,-1.00887 11.95424,-1.95054c2.08982,-0.50901 4.40389,-2.15422 6.55004,-2.88994c4.98565,-1.70911 9.99306,-3.35431 15,-5c7.9996,-2.62932 14.80554,-3.74248 22.89847,-4.97657c4.8312,-0.73671 9.99614,-2.14506 14.91348,-0.91572c6.54713,1.63678 13.43701,3.59652 17.1875,10.15625c2.47311,4.32555 -1.06643,14.02919 3.90004,14.43016c18.79924,1.51778 37.1631,-6.46319 55.75853,-9.61354c7.87632,-1.33437 22.91175,-1.00451 26.11093,-1.12556c31.52759,-1.19302 63.18578,-2.65656 94.71025,-3.19528c33.28188,-0.56875 47.75956,-0.23191 77.44963,0.98448c4.32875,0.17735 18.33187,-0.0691 26.44901,1.37612c14.67631,2.61306 29.34245,5.28368 44,8c6.99442,1.2962 18.56607,5.66025 22.02046,6.74591c13.75022,4.3215 27.05081,9.35532 40.60493,14.16402c4.99496,1.7721 12.01663,3.21878 16.3556,6.59306c2.98786,2.32357 5.0574,5.63815 7.42188,8.59375c5.28112,6.6014 2.91227,16.57092 1.07766,23.61305c-0.26998,1.03631 0.03669,2.25795 -0.52546,3.16944c-2.07939,3.3716 -4.82612,6.4067 -7.97408,8.81126c-2.29289,1.75142 -5.37933,2.09539 -8.11754,3.00481c-8.19648,2.72222 -21.93997,2.85162 -30.44556,1.56129c-3.95781,-0.60042 -7.89475,-1.33141 -11.84588,-1.97431c-1.75764,-0.28599 -3.52297,-1.10113 -5.28015,-0.81233c-1.78928,1.18225 -3.73949,2.14059 -5.81071,2.83512c-0.81328,0.46056 -1.79154,0.80303 -3.30268,0.85991c-1.50685,0.28348 -3.06141,0.43177 -4.65061,0.43177c-6.20308,0 -11.87851,-2.25918 -16.24835,-5.99963c-0.00708,-0.00016 -0.01414,-0.00028 -0.02117,-0.00037z" fill="#00ff47" stroke="none" stroke-width="0.5" stroke-linecap="butt"/><text transform="translate(26,48) scale(0.5,0.5)" font-size="40" xml:space="preserve" fill="#ff0000" fill-rule="nonzero" stroke="none" stroke-width="1" stroke-linecap="butt" stroke-linejoin="miter" stroke-miterlimit="10" stroke-dasharray="" stroke-dashoffset="0" font-family="Sans Serif" font-weight="normal" text-anchor="start" style="mix-blend-mode: normal"><tspan x="0" dy="0">HDDクリッカー</tspan></text></g></g></svg>