<svg version="1.1" xmlns="http://www.w3.org/2000/svg" xmlns:xlink="http://www.w3.org/1999/xlink" width="177" height="172"><g transform="translate(-104,-55)"><g data-paper-data="{&quot;isPaintingLayer&quot;:true}" fill="none" fill-rule="nonzero" stroke="none" stroke-width="none" stroke-linecap="butt" stroke-linejoin="miter" stroke-miterlimit="10" stroke-dasharray="" stroke-dashoffset="0" font-family="none" font-weight="none" font-size="none" text-anchor="none" style="mix-blend-mode: normal"><path d="M104,227v-172h177v172z" data-paper-data="{&quot;origPos&quot;:null}" fill="#b4b4b4" stroke="none" stroke-width="0"/><path d="M118,219.9449v-93.36673h58.96846v93.36673z" data-paper-data="{&quot;origPos&quot;:null}" fill="#66ffb3" stroke="#000000" stroke-width="2"/><text transform="translate(128.58408,144.53331) scale(0.43473,0.43473)" font-size="40" xml:space="preserve" data-paper-data="{&quot;origPos&quot;:null}" fill="#ff6666" fill-rule="nonzero" stroke="none" stroke-width="1" stroke-linecap="butt" stroke-linejoin="miter" stroke-miterlimit="10" stroke-dasharray="" stroke-dashoffset="0" font-family="Sans Serif" font-weight="normal" text-anchor="start" style="mix-blend-mode: normal"><tspan x="0" dy="0">HDD</tspan></text><path d="M210.28624,72.85627c0.64713,0.38828 0.9817,0.8547 1.13345,1.3167c6.07986,2.04408 12.12762,4.26332 17.18988,8.31312c3.86697,3.09677 7.62097,5.37347 8.89043,10.51391c1.69367,6.85816 -1.86076,13.54466 -5.46409,19.00213c-3.656,5.53724 -6.78006,10.13133 -12.89918,13.24082c-2.32059,1.17923 -4.80062,2.77763 -7.2884,3.53281c-4.95167,1.5031 -10.29214,0.07739 -15.25548,-0.32208c-5.01153,-0.40335 -11.08697,-0.78552 -14.96455,-4.6631c-2.25858,-2.25858 -1.12829,-9.40125 -1.12829,-12.29057c0,-3.72468 -0.44108,-7.86591 0.20907,-11.54382c0.62024,-3.50874 2.60122,-6.15673 4.11279,-9.24227c1.76358,-3.59996 2.63987,-6.54275 6.08517,-8.96233c4.11415,-2.8893 9.81453,-3.2454 14.60269,-4.20303c0,0 2.45145,-0.49029 2.94174,1.96116c0.49029,2.45145 -1.96116,2.94174 -1.96116,2.94174c-4.41381,0.88276 -9.60287,1.14976 -13.39731,3.79697c-2.30594,1.60875 -2.48675,3.99132 -3.62874,6.32244c-1.48184,3.02485 -3.37765,5.50028 -3.99268,8.90803c-0.55147,3.05562 0.02844,6.90176 0.02844,10.02111c0,2.47954 -1.11942,8.71831 0.87171,10.70943c0.25554,0.25554 -0.41557,-0.94416 -0.08114,-1.08114c1.2805,-0.52447 4.95713,2.13929 6.28029,2.40747c1.34596,0.2728 2.75028,-0.19132 4.11917,-0.08114c4.73394,0.38101 9.84242,1.78971 14.56332,0.35666c1.82407,-0.5537 3.88707,-2.14611 5.61825,-3.02583c5.37259,-2.73013 7.81011,-6.70996 10.99046,-11.53635c3.14875,-4.77843 6.17717,-10.22242 4.63793,-16.24911c-0.75971,-2.97454 -4.78322,-4.82674 -7.01391,-6.60957c-5.03698,-4.02959 -11.22656,-6.00203 -17.27666,-8.01873l-1.35316,-4.65795c0,0 1.28624,-2.14373 3.42997,-0.85749z" fill="#66ffce" stroke="none" stroke-width="0.5"/><path d="M210.77687,220.18036c-2.18036,-1.22313 -0.16362,-0.10023 -0.16362,-0.10023l-1.5,-1c-0.87108,-1.02671 -1.99734,-1.88281 -2.61325,-3.08013c-0.60492,-1.17595 0,-5.22364 0,-6.5c0,-4.5 0,-9 0,-13.5c0,-3.24732 -0.22202,-6.14613 1.26393,-9.11803c1.27442,-2.50125 2.46239,-5.08301 5.23607,-6.38197c1.50935,-0.70685 3.33333,0 5,0c2.81119,0 5.81582,-0.27348 8.60634,0.07464c0.48611,0.06064 0.95495,0.20991 1.4211,0.37245c-1.02468,-2.70141 -2.43336,-5.25314 -3.0895,-8.12916c-1.35572,-5.94243 -2.9386,-12.08853 -4.00334,-18.14636c-0.73745,0.82842 -1.9346,0.82842 -1.9346,0.82842c-7,0 -14,0 -21,0c-2.20375,0 -3.94796,0.36206 -5.92323,0.69566l-0.10726,0.32916l1.41063,2.94611c0,0 -1.30398,0.20061 -2.16312,-0.63691l-0.21702,0.66598c-0.83333,0 -1.66667,0 -2.5,0c-1.6239,-1.09686 -3.55077,-1.84307 -4.87171,-3.29057c-0.35527,-0.38931 0.19319,-1.07146 0.5,-1.5c0.83568,-1.16723 1.71452,-2.3599 2.87171,-3.20943c0.46373,-0.34044 1.79998,0.16191 2.39366,0.07464c1.55991,-0.2293 3.04179,-0.87947 4.60634,-1.07464c8.04024,-1.00303 16.89171,0 25,0c0,0 0.71479,0 1.37996,0.38221c-0.16114,-2.2822 0.12003,-4.75947 0.12011,-6.97949c0.00018,-5.27427 0.01179,-10.20957 1.04848,-15.39301c0,0 0.49029,-2.45145 2.94174,-1.96116c2.45145,0.49029 1.96116,2.94174 1.96116,2.94174c-0.97563,4.87815 -0.95121,9.44162 -0.95139,14.41273c-0.00009,2.57489 -0.40351,5.54171 -0.00007,8.097c1.03159,6.53385 2.83716,13.23822 4.31269,19.70578c0.75295,3.30033 2.58649,6.10632 3.49201,9.32551c0.04729,0.1681 0.0934,0.3364 0.13844,0.50488c0.51932,-0.01868 1.03857,-0.03618 1.55687,-0.03618c0.01652,0 0.03328,-0.00037 0.05024,-0.00108c-0.68306,-1.05416 -1.43335,-2.06666 -2.13037,-3.11217c0,0 -1.38675,-2.08013 0.69338,-3.46688c2.08013,-1.38675 3.46688,0.69338 3.46688,0.69338c1.31314,1.96971 2.63639,3.80904 3.60171,5.97562c0.20982,0.47092 0.9225,1.00737 0.61325,1.41987c-1.9698,2.62748 -4.26145,3.50608 -6.72213,3.61731c0.50408,2.55216 0.99287,5.10526 1.80447,7.60074l1.09049,2.37398c0,0 0.39922,2.46792 -2.0687,2.86714c-2.46792,0.39922 -2.86714,-2.0687 -2.86714,-2.0687l-0.90951,-1.62602c-1.03255,-3.17487 -1.51212,-6.43359 -2.18401,-9.66301c-1.33774,-0.24348 -2.69283,-0.51537 -4.0449,-0.68484c-2.33777,-0.29301 -5.02425,0.07464 -7.39366,0.07464c-1.66667,0 -3.39192,-0.43801 -5,0c-0.36898,0.1005 1.0639,0.00467 1.08013,0.38675c0.05262,1.23903 -1.30059,2.11656 -1.84406,3.23128c-1.18092,2.36184 -0.73607,4.18983 -0.73607,6.88197c0,3.66667 0,7.33333 0,11c0,2.27167 -0.88777,6.88846 0,9c0.14822,0.35253 0.25783,-0.72008 0.38675,-1.08013l1.5,1c0,0 -0.42952,5.48361 -2.60988,4.26048z" fill="#66ffce" stroke="none" stroke-width="0.5"/><path d="M267.08013,192.38675c-1.38675,2.08013 -3.46688,0.69338 -3.46688,0.69338l-1.98496,-1.28956c-0.8082,-2.42459 -2.34425,-4.35105 -3.12824,-6.77489c-0.38009,-1.17511 -0.2271,-3.90336 -0.46121,-5.07393c-0.58965,-3.21916 -0.66676,-6.14565 -1.46419,-9.3354c-0.09768,-0.3907 -0.41878,-0.84279 -0.57049,-1.24833c-0.80145,0.37005 -1.56913,0.8524 -2.23638,1.40976c-1.55359,1.29771 -3.41685,3.0234 -4.68764,4.61898c-0.30828,0.38708 -0.38036,1.18097 -0.731,1.42684l0.41864,0.41864c0.21486,0.21486 0.39079,0.46864 0.5163,0.74986c0.33516,0.67937 0.53685,1.73252 -0.5163,2.78567c-1.05315,1.05315 -2.10631,0.85147 -2.78567,0.5163c-0.13966,-0.06234 -0.27256,-0.13711 -0.39728,-0.2229l-2.97156,-1.98104l0.60569,-0.90854c0.05701,-5.31102 4.79987,-9.45142 8.89431,-12.25171c0.72419,-0.49529 4.22978,-2.83398 5.09618,-2.29158c5.79004,3.62479 4.46956,9.72674 5.73231,15.33287c0.34218,1.71091 0.0014,4.43975 0.55821,6.02316c0.25095,0.71364 1.24285,0.95182 1.58017,1.62892c0.34661,0.69574 1.00078,2.72379 1.29158,3.59618l0.01504,-1.28956c0,0 2.08013,1.38675 0.69338,3.46688z" fill="#66ffce" stroke="none" stroke-width="0.5"/><path d="M206.31009,88.51931c0.37803,0.04725 0.6917,0.13771 0.95185,0.25711c3.22184,-1.50415 6.62394,-3.31583 9.23807,-5.27642l0.82087,-0.20446c0,0 2.20446,-1.17913 3.38359,1.02533c1.17913,2.20446 -1.02533,3.38359 -1.02533,3.38359l-0.17913,-0.20446c-3.13927,2.35446 -7.2022,4.44282 -11.01678,6.17383c-0.05916,2.17739 -0.3033,4.10783 -1.16203,6.25465c0,0 -0.39711,0.99278 -1.32119,1.4201v0.40143c-0.78328,4.30807 -3.65046,7.16235 -8.26777,5.01777c-1.06885,-0.49644 -1.66667,-1.66667 -2.5,-2.5c0,0 -1.35451,-1.35451 -0.50654,-2.87787c-0.4499,0.12283 -2.36437,0.50876 -3.08693,-1.5686c-0.8213,-2.36124 1.53994,-3.18254 1.53994,-3.18254l0.36821,-1.17309c1.31985,-0.94275 2.48501,-1.64425 3.61216,-2.14629c1.90653,-1.42339 4.0326,-1.95675 6.48964,-2.94681c0.26133,-0.80315 0.94854,-2.06736 2.66138,-1.85326zM202.67881,98.07152c0.13013,-0.32533 0.23974,-0.62959 0.33205,-0.91953c-0.86628,-0.11996 -1.75686,-0.19672 -2.59777,-0.10075c-0.47565,0.35689 -0.94083,0.81908 -1.41309,1.44876c0,0 -1.0182,1.3576 -2.49534,0.99688c-0.01709,0.01262 -0.03428,0.02511 -0.05157,0.03746l-0.67846,0.75959c1.56962,-0.9852 2.99313,0.43831 2.99313,0.43831c0.83333,0.83333 1.53775,1.81959 2.5,2.5c0.24408,0.17259 -0.72914,-0.52086 -0.51777,-0.73223c-0.28727,-0.57454 1.63656,-1.44328 0.25,-0.75v-1.25c0,0 0.67475,-0.50752 1.5285,-0.95707c-0.12648,-0.77944 0.1503,-1.47141 0.1503,-1.47141z" fill="#66ffce" stroke="none" stroke-width="0.5"/></g></g></svg>