<svg version="1.1" xmlns="http://www.w3.org/2000/svg" xmlns:xlink="http://www.w3.org/1999/xlink" width="179.55785" height="180.52901" viewBox="0,0,179.55785,180.52901"><g transform="translate(-101.44215,-55)"><g data-paper-data="{&quot;isPaintingLayer&quot;:true}" fill="none" fill-rule="nonzero" stroke="none" stroke-width="none" stroke-linecap="butt" stroke-linejoin="miter" stroke-miterlimit="10" stroke-dasharray="" stroke-dashoffset="0" font-family="none" font-weight="none" font-size="none" text-anchor="none" style="mix-blend-mode: normal"><path d="M104,227v-172h177v172z" data-paper-data="{&quot;origPos&quot;:null}" fill="#b4b4b4" stroke-width="0"/><path d="M140.5,222.5c-2.18983,0 -4.70018,-0.34401 -6.86569,-0.08181c-0.1926,0.02332 -0.38386,0.05149 -0.57395,0.08404c11.72443,0.03545 23.33098,0.48505 34.9886,0.76848c-9.18183,-0.29522 -18.30758,-0.77071 -27.54896,-0.77071zM102.52328,219.01746c-0.25207,-0.18482 -0.46822,-0.41574 -0.63603,-0.68035c-0.42467,-0.61704 -0.77536,-1.61696 0.08075,-2.79378c0.01865,-0.02596 0.03777,-0.05155 0.05737,-0.07676c0.22885,-0.29804 0.46892,-0.51586 0.71144,-0.67103c-0.04967,-5.95352 1.52797,-12.02386 3.85939,-17.48234c1.1335,-2.65383 2.98864,-4.95875 4.2332,-7.55354c1.55116,-3.23404 2.55093,-6.27527 4.58937,-9.24708c3.70988,-5.19383 6.56914,-10.87185 10.27461,-16.05957c5.94176,-8.31855 11.83345,-16.58731 18.21962,-24.59225c7.7202,-9.67713 19.59032,-19.56603 32.29644,-21.23246c4.31016,-0.56529 8.94755,-0.12829 13.29057,-0.12829c8.31206,0 18.29338,-1.40975 26.10634,2.07465c8.18066,3.64838 13.75682,11.2841 19.9292,17.42535c4.88351,4.88351 8.19127,11.06589 12.4519,16.4834c6.16924,7.84436 12.87742,15.09891 18.01501,23.66156c2.97735,4.96224 5.8856,10.1831 8.10713,15.50774c2.35971,5.65581 1.64429,11.50126 2.39042,17.3473c0.572,4.48179 1.84053,8.99983 2,13.5c0,3.31671 0.13027,7.46159 -4.11325,8.58013c-3.98341,1.04997 -8.79262,0.41987 -12.88675,0.41987c-8.94912,0 -17.73793,-0.22492 -26.66541,-0.86259c-4.11919,-0.29423 -8.0591,-1.53394 -12.13068,-2.14712c-12.70955,-1.91404 -25.39389,-1.99029 -38.2039,-1.99029c-17.73817,0 -35.17899,-1 -52.90287,-1c-7.50955,0 -15.01908,0 -22.52863,0c-0.29284,0.42362 -0.77931,0.79167 -1.57821,0.95145c-2.45145,0.49029 -2.94174,-1.96116 -2.94174,-1.96116l4.18231,-3.74903c-0.20761,-0.09954 -0.41363,-0.20055 -0.61792,-0.30288c-0.27565,0.42144 -0.73948,0.7952 -1.5066,0.98698c-2.42535,0.60634 -3.03169,-1.81902 -3.03169,-1.81902c-0.17627,-0.70505 -0.32303,-1.41609 -0.4419,-2.13178z" fill="#999999" stroke-width="0.5"/><path d="M171.28163,235.39457c-2.39457,-0.71837 -1.6762,-3.11294 -1.6762,-3.11294l-0.97714,-1.0722c0.40555,-1.21666 0.59165,-2.45476 0.67808,-3.70355c-1.00578,0.05084 -3.74717,0.40466 -4.30637,-0.00588c-1.15719,-0.84954 -1.91448,-2.13962 -2.87171,-3.20943l-0.5,-1.5c0,0 0.78591,0.3665 1.51333,0.76193c0.73038,-0.97549 3.23009,-2.34307 3.23009,-2.34307l0.43019,1.29057c0.86735,0 1.73469,0 2.60204,0c0.02228,-0.85075 0.07172,-1.69986 0.18533,-2.54402c-0.02986,0.01453 -0.05962,0.0292 -0.08927,0.04402c0,-0.33334 0,-2.16666 0,-2.5c-0.55048,-0.55048 -0.03623,-1.52788 0,-2.33269c0,-0.05577 0,-0.11154 0,-0.16731c-0.11963,-2.39864 -0.49484,-4.82376 -0.73387,-7.21402c-1.02768,-10.27686 -0.26613,-20.94754 -0.26613,-31.28598c0,-1.83956 0.36595,-3.44794 1.01925,-4.84259c0.00968,-0.04921 0.01945,-0.09844 0.0293,-0.14769c0,0 0.2104,-1.052 1.04468,-1.63988c4.82344,-6.43825 16.85401,-6.97573 24.0131,-4.29519c1.9691,0.73728 3.68131,1.90586 5.68423,2.55364c3.01175,0.97407 5.71773,1.18375 8.52635,2.76784c1.14022,0.74346 3.8092,1.90386 4.56983,3.02374c2.09214,3.08029 2.17887,7.01226 3.04528,10.49274c2.09585,8.41925 1.06797,17.88246 1.06797,26.58739c0,3.33334 0,6.66666 0,10c0,1 0.66056,2.24923 0,3c-3.60527,4.09759 -7.67696,3.5 -12.5,3.5c-6.83334,0 -13.66666,0 -20.5,0c-2.01044,0 -4.02088,0 -6.03132,0c-0.20652,0.02894 -0.43321,0.03148 -0.68176,0c-1.12771,0 -2.25542,0 -3.38313,0c-0.12568,1.74979 -0.40857,3.42007 -1.03207,5.29057l1.02286,0.9278c0,0 -0.71837,2.39457 -3.11294,1.6762zM173.76777,220.76777c-0.04798,0.18852 0.16646,0.2902 0.37643,0.40329c-0.04138,-0.27902 -0.08408,-0.55843 -0.12674,-0.8379c-0.11663,0.12587 -0.20696,0.2667 -0.2497,0.43461zM212.52903,223.26154c-0.04727,0.2594 -0.08397,0.51869 -0.02902,0.73846c0.07877,0.31506 0.05521,-0.201 0.02902,-0.73846z" fill="#000000" stroke-width="0.5"/></g></g></svg>