<svg version="1.1" xmlns="http://www.w3.org/2000/svg" xmlns:xlink="http://www.w3.org/1999/xlink" width="180.5436" height="172.76023" viewBox="0,0,180.5436,172.76023"><g transform="translate(-100.4564,-55)"><g data-paper-data="{&quot;isPaintingLayer&quot;:true}" fill="none" fill-rule="nonzero" stroke="none" stroke-width="none" stroke-linecap="butt" stroke-linejoin="miter" stroke-miterlimit="10" stroke-dasharray="" stroke-dashoffset="0" font-family="none" font-weight="none" font-size="none" text-anchor="none" style="mix-blend-mode: normal"><path d="M104,227v-172h177v172z" data-paper-data="{&quot;origPos&quot;:null}" fill="#b4b4b4" stroke="none" stroke-width="0"/><path d="M115,184.32818c0,0 0,-4.46827 0,-7.32818c0,-19.9034 38,-28.0966 38,-48c0,-16.1654 -38,-44.42182 -38,-44.42182h63c0,0 46,61.40274 46,63.3906c0,0.66262 -46,28.3686 -46,29.03122c0,1.67896 53.66666,-23.71017 53.66666,-22.03122c0,1.18096 -53.66666,29.3594 -53.66666,29.3594c0,0 41.11386,-1.33334 40.33334,-1.33334c-2.34158,0 -103.33333,1.33334 -103.33333,1.33334z" data-paper-data="{&quot;origPos&quot;:null}" fill="#66ffb3" stroke="#000000" stroke-width="2"/><text transform="translate(136.30769,100.76088) scale(0.46445,0.46445)" font-size="40" xml:space="preserve" data-paper-data="{&quot;origPos&quot;:null}" fill="#ff6666" fill-rule="nonzero" stroke="none" stroke-width="1" stroke-linecap="butt" stroke-linejoin="miter" stroke-miterlimit="10" stroke-dasharray="" stroke-dashoffset="0" font-family="Sans Serif" font-weight="normal" text-anchor="start" style="mix-blend-mode: normal"><tspan x="0" dy="0">HDD</tspan></text><path d="M250.34933,199.85479c0.42801,0.84502 -2.12063,4.73985 -2.41763,5.25284c-2.08408,3.59978 -4.16817,7.19956 -6.25225,10.79934c5.09604,-0.96083 10.09244,-2.3012 14.74969,-4.37121c1.36623,-0.60725 2.8478,-0.94537 4.18411,-1.61589c0.5371,-0.2695 0.89962,-1.0255 1.5,-1c0.38208,0.01623 0.12766,1.36141 0.38675,1.08013c0.33875,-0.36776 0,-1 0,-1.5c0,-2 0,-4 0,-6c0,-1 -0.51085,-2.14033 0,-3c0.13276,-0.22342 0.82149,0.51184 0.73223,0.26777c-0.3238,-0.88546 -1.33333,-1.33333 -2,-2c-0.37307,-0.37307 -0.35892,-1.12264 -0.83857,-1.34241c-2.37028,-1.08603 -4.72186,-0.64551 -7.18423,-1.05365c-0.78107,-0.12946 -1.42505,-0.7641 -2.20943,-0.87171c-2.26517,-0.31076 -4.6181,-0.01215 -7,0c0.51316,0.2799 0.91238,0.69148 1.25759,1.16547c2.01212,0.43629 3.75115,1.54259 5.09173,4.18932zM234.50343,213.99829l2.50256,0.00172c0.11188,-0.19324 0.22375,-0.38648 0.33563,-0.57973c1.67012,-2.88475 3.34024,-5.76951 5.01036,-8.65426c0.49148,-0.84891 1.01393,-1.68113 1.51266,-2.52613c-0.54339,-0.31155 -0.86464,-0.73988 -0.86464,-0.73988c-0.28516,-0.38021 -0.53886,-0.79366 -0.78802,-1.21191c-1.41032,0.0367 -2.89526,0.21191 -4.21198,0.21191l-1.28875,-0.68234c-0.09771,0.10301 -0.20397,0.19352 -0.3245,0.26247c-3.20234,1.83194 -6.90542,3.48106 -8.30662,7.30662c-1.10962,3.02948 -0.8525,6.9664 -0.67694,10.49833c0.27871,-0.03151 0.55738,-0.06275 0.83603,-0.09371c2.07452,-0.2303 4.16732,-0.4728 6.26213,-0.75123zM223.35955,224.88651c-0.52751,-0.4587 -0.77925,-0.93664 -0.8682,-1.3872c-14.43892,1.76362 -28.9485,3.90566 -43.44213,3.98895c-16.48671,0.09475 -33.47438,1.59677 -49.33979,-3.61656c-2.88617,-0.96206 -5.97967,-0.10098 -9,-1c-8.57254,-2.55168 -21.06191,-12.50012 -17.60578,-22.31719c-0.49461,0.02772 -1.06131,-0.11908 -1.66539,-0.60235c-1.95217,-1.56174 -0.39043,-3.51391 -0.39043,-3.51391c1.04116,-1.30145 1.82588,-2.85838 3.12348,-3.90434c2.88423,-2.32491 6.391,-2.03392 9.8287,-2.03392c3.25763,0 6.76379,-0.39259 10,0c1.81685,0.22041 3.57222,0.84589 5.39319,1.02913c1.56278,0.15726 3.17265,0.18351 4.79354,0.15857c1.88277,-0.48283 4.13401,-0.86555 5.91011,-1.01051c3.28088,-1.3186 5.43444,-1.88949 8.98328,-0.06394c0.44405,0.22842 0.81851,0.56837 1.13057,0.98624c7.27252,0.13099 14.57765,0.29992 21.7893,-0.09949c6.69854,-0.371 13.43402,-1.65632 20.04682,-2.71835c4.30535,-0.69145 10.58226,-1.00614 14.95318,-0.28165c1.30056,0.21557 2.49053,0.90958 3.79057,1.12829c1.5159,0.25503 3.62869,-0.12829 5.20943,-0.12829c5,0 10,0 15,0c6.4572,0 13.62651,-0.93331 20,0c1.3044,0.19101 2.49053,0.90958 3.79057,1.12829c2.17154,0.36533 4.66331,-0.16964 6.81577,0.94635c4.51929,2.34313 5.89366,6.16453 5.89366,10.92536c0,1.68193 0.80962,6.08102 0,7.5c-2.19277,3.84317 -5.50399,4.52939 -9.21391,6.17815c-9.13416,4.05938 -19.54595,5.47629 -29.49472,6.58264c-0.54199,0.06022 -1.08409,0.12148 -1.62631,0.18364l-0.27854,1.69602c0,0 -1.64045,1.88651 -3.52696,0.24607zM223.91987,204.61325c1.65276,-4.30401 6.01603,-6.59475 9.69338,-8.69338c1.07992,-0.6163 1.56775,-1.10181 2.28314,-1.54097c-1.65709,0.06749 -3.29589,0.12109 -4.89639,0.12109c-7.04214,0 -14.83415,1.02474 -21.79057,-0.12829c-0.78107,-0.12946 -1.42868,-0.74036 -2.20943,-0.87171c-4.12609,-0.69416 -10.07175,-0.43825 -14.16033,0.21839c-2.64415,0.42466 -5.304,0.87667 -7.97257,1.29421c0.88987,0.6386 1.72454,1.53194 2.50461,2.77797c0.67586,1.07959 -0.72362,2.45613 -1.29158,3.59618c-1.79709,3.60724 -5.36183,5.79292 -9.28934,6.28386c-5.8054,0.72568 -12.84766,1.97511 -18.55855,0.09716c-1.75931,-0.57853 -2,-5.51901 -2,-5.53553c0,-1.61617 3.97613,-2.88106 5.16143,-3.15759c3.73445,-0.87124 7.71607,-0.6757 11.587,-0.59816c-0.12273,-0.15041 -0.80313,-1.00187 -1.27711,-1.96039c-6.67957,0.35551 -13.4378,0.23091 -20.1746,0.10743c0,0.00227 -0.00001,0.00454 -0.00001,0.00681c0.04195,0.25231 0.03991,0.52831 -0.02927,0.82513c-0.04379,0.62274 -0.13516,1.19324 -0.26361,1.66257c-2.5115,9.17629 -12.47443,13.24663 -21.06546,12.17275c-3.44286,-0.43036 -5.8196,-0.36642 -8.67061,-3.29078c-0.46538,-0.47735 -0.05181,-1.33535 0,-2c0.0884,-1.13412 0.10248,-2.29437 0.41987,-3.38675c0.65844,-2.26614 2.58788,-4.73924 4.78201,-6.73063c-3.55072,-0.20527 -7.10495,-0.38262 -10.70188,-0.38262c-1.44549,0 -6.87228,-0.77945 -7.92435,0.15739c-0.36591,0.32583 -0.69664,0.68504 -1.0077,1.06289c0.91396,-0.19482 1.89314,-0.22029 2.93205,-0.22029l2.27608,0.01529c0,0 2.48471,0.27608 2.20863,2.76079c-0.27608,2.48471 -2.76079,2.20863 -2.76079,2.20863l-1.72392,0.01529c-0.5,0 -1.07016,0.25542 -1.5,0c-0.22342,-0.13276 0.51184,-0.82149 0.26777,-0.73223c-0.44273,0.1619 -0.66667,0.66667 -1,1c-0.08926,-0.25592 -0.17468,-1.02232 -0.26777,-0.76777c-0.86912,2.37668 1.27306,8.2967 3,10c2.83447,2.79567 8.48076,6.82381 12.5,7.5c2.81488,0.47357 5.48103,-0.30822 8.29057,0.62829c15.19527,5.15754 31.90216,3.45102 47.72991,3.36006c14.4944,-0.0833 29.01167,-2.26355 43.45368,-4.02262c-0.08201,-4.66128 -0.2389,-9.46553 1.44571,-13.85248zM175,198.5c0,0 2.5,0 2.5,2.5c0,0.69393 -0.19261,1.19524 -0.47091,1.5574c1.58367,-0.35993 3.2826,-1.18391 3.89079,-2.44415c0.19365,-0.40127 0.43058,-0.78483 0.65108,-1.17471c-0.38294,-0.17365 -0.80252,-0.46621 -1.17729,-0.51318c-1.69044,-0.21188 -3.6816,0.07464 -5.39366,0.07464zM169.97608,203.32596c-1.94927,-0.07634 -3.90805,-0.10149 -5.7279,0.1394c0.25135,0.01817 0.5025,0.03465 0.75182,0.03465c1.68958,0 3.33663,-0.06286 4.97608,-0.17404zM162.15833,203.87263c-0.21629,0.05863 -0.43075,0.12316 -0.64263,0.19445c0.07419,0.08781 0.15673,0.15042 0.25207,0.16516c0.18371,0.0284 0.28428,-0.16404 0.39056,-0.3596zM132.58739,197.43203c-2.50298,1.10653 -4.05741,4.27984 -5.50726,6.45472c-0.40518,0.6078 -0.69601,1.39202 -0.58013,2.11325c0.10576,0.65822 -0.575,2.33737 0,2c0.62963,-0.36942 -0.31531,-1.76373 0.29078,-2.17061c1.11564,-0.74894 2.66667,0.33333 4,0.5c3.27156,0.40894 7.23688,0.55649 10.16207,-1.28224c1.69566,-1.06587 3.83339,-3.95436 5.04715,-6.34845v-0.69408l-2.24372,-1.49581c-0.78545,-0.00599 -1.57008,-0.00943 -2.35372,-0.00953c-1.29024,-0.00016 -2.57408,-0.0229 -3.85329,-0.0614c-1.64938,0.35697 -3.41908,0.31211 -4.96188,0.99415zM242.91343,194.1226c0.34477,0.09884 0.63478,0.02757 0.83842,-0.01063c-0.27914,0.00225 -0.55864,0.00585 -0.83842,0.01063z" fill="#9966ff" stroke="none" stroke-width="0.5"/><path d="M203.97586,200.56381c-4.1561,0.61387 -7.16758,3.36169 -10.13271,6.20336c-1.65263,1.58382 -3.11044,2.61584 -3.69265,4.77445c-0.26293,0.97485 -0.71403,1.95069 -0.6505,2.95837c0.01115,0.17682 0.0144,0.47946 0.01394,0.77429c0.12376,-2.85657 1.09829,-1.77429 3.98606,-1.77429c2.73123,0 6.89188,0.85087 9.5,0c2.41533,-0.78797 4.98322,-3.20399 7.03724,-4.70298c0.82967,-0.60548 1.89008,-0.98203 2.48901,-1.81644c0.08629,-0.12022 0.16126,-2.37237 0.37516,-4.167c-0.25633,-0.16479 -0.52861,-0.38457 -0.76497,-0.46746c-1.46293,-0.51298 -2.58559,-1.01062 -4.13644,-0.84612h-2c0,0 -1.29884,0 -2.02414,-0.93619zM215.44356,198.30691c1.27137,0.75132 2.33417,1.80485 2.98847,3.28048c0.33779,0.7618 -0.32389,1.6349 -0.49029,2.45145c-0.50132,2.46005 -0.94322,4.88189 -2.468,6.98059c-0.81263,1.11849 -3.47201,2.54395 -4.50844,3.29019c-2.43653,1.75433 -5.03513,3.35616 -7.96531,4.19039c-2.72262,0.77513 -6.6795,0 -9.5,0c-1.33333,0 -2.73509,0.42164 -4,0c-1.76777,-0.58926 -3.54494,-1.33595 -5,-2.5c-0.99441,-0.79552 -0.11395,-2.56953 0.13758,-3.8179c0.80138,-3.97738 3.00036,-6.39285 5.7958,-9.0719c4.35306,-4.17183 8.67633,-7.16253 14.87671,-7.59089c2.51512,-0.17376 5.51637,0.68955 8,1c0,0 1.7719,0.22149 2.13347,1.7876z" fill="#9966ff" stroke="none" stroke-width="0.5"/></g></g></svg>